<?xml version="1.0" encoding="UTF-8" standalone="no"?>
<!DOCTYPE svg PUBLIC "-//W3C//DTD SVG 1.1//EN" "http://www.w3.org/Graphics/SVG/1.1/DTD/svg11.dtd">
<!-- Generated by Microsoft Visio, SVG Export c1.svg C1 -->
<svg xmlns="http://www.w3.org/2000/svg" xmlns:xlink="http://www.w3.org/1999/xlink" xmlns:ev="http://www.w3.org/2001/xml-events"
		xmlns:v="http://schemas.microsoft.com/visio/2003/SVGExtensions/" width="6.55758in" height="3.11729in"
		viewBox="0 0 472.146 224.445" xml:space="preserve" color-interpolation-filters="sRGB" class="st16">
	<v:documentProperties v:langID="1049" v:metric="true" v:viewMarkup="false">
		<v:userDefs>
			<v:ud v:nameU="msvNoAutoConnect" v:val="VT0(1):26"/>
		</v:userDefs>
	</v:documentProperties>

	<style type="text/css">
	<![CDATA[
		.st1 {fill:#92d050;stroke:#000000;stroke-linecap:round;stroke-linejoin:round;stroke-width:0.24}
		.st2 {fill:#000000;font-family:Calibri;font-size:1.00001em}
		.st3 {font-size:1em}
		.st4 {fill:#ff00ff;fill-opacity:0}
		.st5 {stroke:#000000;stroke-linecap:round;stroke-linejoin:round;stroke-opacity:0;stroke-width:0.72}
		.st6 {fill:url(#grad3-12)}
		.st7 {stroke:#373773;stroke-linecap:round;stroke-linejoin:round;stroke-width:0.72}
		.st8 {fill:url(#grad3-12);stroke:#555555;stroke-linecap:round;stroke-linejoin:round;stroke-width:0.72}
		.st9 {stroke:#555555;stroke-linecap:round;stroke-linejoin:round;stroke-width:0.72}
		.st10 {stroke:#000000;stroke-linecap:round;stroke-linejoin:round;stroke-width:2}
		.st11 {fill:#ffc000;stroke:#000000;stroke-linecap:round;stroke-linejoin:round;stroke-width:0.24}
		.st12 {marker-end:url(#mrkr13-71);stroke:#000000;stroke-linecap:round;stroke-linejoin:round;stroke-width:0.75}
		.st13 {fill:#000000;fill-opacity:1;stroke:#000000;stroke-opacity:1;stroke-width:0.22935779816514}
		.st14 {fill:#ffffff;stroke:none;stroke-linecap:butt;stroke-width:7.2}
		.st15 {fill:none;stroke:none;stroke-linecap:round;stroke-linejoin:round;stroke-width:0.75}
		.st16 {fill:none;fill-rule:evenodd;font-size:12px;overflow:visible;stroke-linecap:square;stroke-miterlimit:3}
	]]>
	</style>

	<defs id="Patterns_And_Gradients">
		<radialGradient id="grad3-12" cx="0.5" cy="0.5" r="0.73">
			<stop offset="0" stop-color="#94d051" stop-opacity="1"/>
			<stop offset="1" stop-color="#76b531" stop-opacity="1"/>
		</radialGradient>
	</defs>
	<defs id="Markers">
		<g id="lend13">
			<path d="M 3 1 L 0 0 L 3 -1 L 3 1 " style="stroke:none"/>
		</g>
		<marker id="mrkr13-71" class="st13" v:arrowType="13" v:arrowSize="2" v:setback="13.08" refX="-13.08" orient="auto"
				markerUnits="strokeWidth" overflow="visible">
			<use xlink:href="#lend13" transform="scale(-4.36,-4.36) "/>
		</marker>
	</defs>
	<g v:mID="0" v:index="1" v:groupContext="foregroundPage">
		<title>C1</title>
		<v:pageProperties v:drawingScale="0.0393701" v:pageScale="0.0393701" v:drawingUnits="24" v:shadowOffsetX="8.50394"
				v:shadowOffsetY="-8.50394"/>
		<v:layer v:name="Humans" v:index="0"/>
		<v:layer v:name="Connector" v:index="1"/>
		<g id="shape155-1" v:mID="155" v:groupContext="shape" transform="translate(374.082,-56.6427)">
			<title>Rounded Rectangle.155</title>
			<desc>External systems</desc>
			<v:userDefs>
				<v:ud v:nameU="CTypeTopLeftSnip" v:prompt="" v:val="VT0(0):5"/>
				<v:ud v:nameU="CTypeTopRightSnip" v:prompt="" v:val="VT0(0):5"/>
				<v:ud v:nameU="CTypeBotLeftSnip" v:prompt="" v:val="VT0(0):5"/>
				<v:ud v:nameU="CTypeBotRightSnip" v:prompt="" v:val="VT0(0):5"/>
				<v:ud v:nameU="CornerLockHoriz" v:prompt="" v:val="VT0(1):5"/>
				<v:ud v:nameU="CornerLockVert" v:prompt="" v:val="VT0(1):5"/>
				<v:ud v:nameU="CornerLockDiag" v:prompt="" v:val="VT0(0):5"/>
				<v:ud v:nameU="TopLeftOffset" v:prompt="" v:val="VT0(0.15748031496063):24"/>
				<v:ud v:nameU="TopRightOffset" v:prompt="" v:val="VT0(0.15748031496063):24"/>
				<v:ud v:nameU="BotLeftOffset" v:prompt="" v:val="VT0(0.15748031496063):24"/>
				<v:ud v:nameU="BotRightOffset" v:prompt="" v:val="VT0(0.15748031496063):24"/>
				<v:ud v:nameU="visVersion" v:prompt="" v:val="VT0(15):26"/>
				<v:ud v:nameU="TopLeftOffset" v:prompt="" v:val="VT0(0):1"/>
				<v:ud v:nameU="TopRightOffset" v:prompt="" v:val="VT0(0):1"/>
				<v:ud v:nameU="BotLeftOffset" v:prompt="" v:val="VT0(0):1"/>
				<v:ud v:nameU="BotRightOffset" v:prompt="" v:val="VT0(0):1"/>
			</v:userDefs>
			<v:textBlock v:margins="rect(4,4,4,4)" v:tabSpace="42.5197"/>
			<v:textRect cx="35.4331" cy="197.988" width="70.87" height="52.9134"/>
			<path d="M0 224.45 L70.87 224.45 L70.87 171.53 L0 171.53 L0 224.45 Z" class="st1"/>
			<text x="15.41" y="194.39" class="st2" v:langID="1033"><v:paragraph v:horizAlign="1"/><v:tabList/>External <tspan
						x="15.89" dy="1.2em" class="st3">systems</tspan></text>		</g>
		<g id="group1-5" transform="translate(43.8455,-166.283)" v:mID="1" v:groupContext="group">
			<v:custProps>
				<v:cp v:nameU="Name" v:lbl="Name" v:type="0" v:invis="false" v:ask="false" v:langID="1033"/>
				<v:cp v:nameU="Location" v:lbl="Location" v:type="0" v:invis="false" v:ask="false" v:langID="1033"/>
				<v:cp v:nameU="Building" v:lbl="Building" v:type="0" v:invis="false" v:ask="false" v:langID="1033"/>
				<v:cp v:nameU="Room" v:lbl="Room" v:type="0" v:invis="false" v:ask="false" v:langID="1033"/>
				<v:cp v:nameU="Department" v:lbl="Department" v:type="0" v:invis="false" v:ask="false" v:langID="1033"/>
				<v:cp v:nameU="ShapeClass" v:lbl="ShapeClass" v:type="0" v:invis="true" v:ask="false" v:langID="1033"
						v:val="VT4(Connectivity)"/>
				<v:cp v:nameU="ShapeType" v:lbl="ShapeType" v:type="0" v:invis="true" v:ask="false" v:langID="1033"
						v:val="VT4(User)"/>
			</v:custProps>
			<v:userDefs>
				<v:ud v:nameU="HasText" v:val="VT0(0):5"/>
				<v:ud v:nameU="ShapeClass" v:val="VT0(4):26"/>
				<v:ud v:nameU="ShapeType" v:val="VT0(4):26"/>
				<v:ud v:nameU="SolSH" v:val="VT15({BF0433D9-CD73-4EB5-8390-8653BE590246}):41"/>
				<v:ud v:nameU="visLegendShape" v:val="VT0(2):26"/>
				<v:ud v:nameU="visVersion" v:prompt="" v:val="VT0(15):26"/>
				<v:ud v:nameU="HasText" v:prompt="" v:val="VT0(1):5"/>
			</v:userDefs>
			<title>User</title>
			<desc>Adminstrator</desc>
			<g id="shape2-6" v:mID="2" v:groupContext="shape" transform="translate(-4.60905,2.84217E-14)">
				<title>Sheet.2</title>
				<path d="M6.61 203.53 A10.8047 10.5749 -180 0 0 0 212.78 L0.04 217.11 A3.68208 3.60376 -180 0 0 1.41 219.97 A1.41796
							 1.3878 -180 0 0 2.99 220.23 A1.89751 1.85715 -180 0 0 3.89 221.64 A25.6694 25.1234 -180 0 0 16 224.44
							 A8.2964 8.11993 -180 0 0 19.9 223.43 A1.34508 1.31647 -180 0 0 21.46 223.68 A5.56005 5.44179 -180 0
							 0 24.08 221 L24.08 213.35 A10.5919 10.3666 -180 0 0 17.49 204.29 L17.43 204.28 A7.16323 7.01086 -180
							 1 0 6.62 203.53 L6.61 203.53 Z" class="st4"/>
				<path d="M6.61 203.53 A10.8047 10.5749 -180 0 0 0 212.78 L0.04 217.11 A3.68208 3.60376 -180 0 0 1.41 219.97 A1.41796
							 1.3878 -180 0 0 2.99 220.23 A1.89751 1.85715 -180 0 0 3.89 221.64 A25.6694 25.1234 -180 0 0 16 224.44
							 A8.2964 8.11993 -180 0 0 19.9 223.43 A1.34508 1.31647 -180 0 0 21.46 223.68 A5.56005 5.44179 -180 0
							 0 24.08 221 L24.08 213.35 A10.5919 10.3666 -180 0 0 17.49 204.29 L17.43 204.28 A7.16323 7.01086 -180
							 1 0 6.62 203.53" class="st5"/>
			</g>
			<g id="shape3-9" v:mID="3" v:groupContext="shape" transform="translate(0.0163047,-3.12639E-13)">
				<title>Sheet.3</title>
				<path d="M3.89 221.64 A25.6694 25.1234 -180 0 0 16 224.44 A8.2964 8.11993 -180 0 0 19.9 223.43 A1.34508 1.31647 -180
							 0 0 21.46 223.68 A5.56005 5.44179 -180 0 0 24.08 221 L24.08 213.35 A10.5919 10.3666 -180 0 0 17.49 204.29
							 L6.61 203.53 A10.8047 10.5749 -180 0 0 0 212.78 L0.04 217.11 A3.68208 3.60376 -180 0 0 1.41 219.97 A1.41796
							 1.3878 -180 0 0 2.99 220.23 A1.89751 1.85715 -180 0 0 3.89 221.64 Z" class="st6"/>
				<path d="M3.89 221.64 A25.6694 25.1234 -180 0 0 16 224.44 A8.2964 8.11993 -180 0 0 19.9 223.43 A1.34508 1.31647 -180
							 0 0 21.46 223.68 A5.56005 5.44179 -180 0 0 24.08 221 L24.08 213.35 A10.5919 10.3666 -180 0 0 17.49 204.29M6.61
							 203.53 A10.8047 10.5749 -180 0 0 0 212.78 L0.04 217.11 A3.68208 3.60376 -180 0 0 1.41 219.97 A1.41796
							 1.3878 -180 0 0 2.99 220.23 A1.89751 1.85715 -180 0 0 3.89 221.64" class="st7"/>
			</g>
			<g id="shape4-14" v:mID="4" v:groupContext="shape" transform="translate(5.20962,-18.1043)">
				<title>Sheet.4</title>
				<ellipse cx="7.16323" cy="217.434" rx="7.16323" ry="7.01086" class="st8"/>
			</g>
			<g id="shape5-17" v:mID="5" v:groupContext="shape" transform="translate(-218.392,183.35) rotate(-80.5423)">
				<title>Sheet.5</title>
				<path d="M-0 224.45 A24.8343 55.1945 0 0 1 13.44 224.45" class="st9"/>
			</g>
			<g id="shape6-21" v:mID="6" v:groupContext="shape" transform="translate(-202.759,239.997) rotate(-94.2553)">
				<title>Sheet.6</title>
				<path d="M-0 223.29 A48.0174 106.767 -180 0 0 14.07 223.29" class="st9"/>
			</g>
			<g id="shape7-25" v:mID="7" v:groupContext="shape" transform="translate(6.64226,-18.2223)">
				<title>Sheet.7</title>
				<path d="M0 221.63 A7.17672 7.02406 -180 0 0 10.82 222.39" class="st9"/>
			</g>
			<g id="shape8-29" v:mID="8" v:groupContext="shape" transform="translate(0.0163047,2.84217E-14)">
				<title>Sheet.8</title>
				<path d="M6.61 203.53 A11.0237 10.7892 -180 0 0 0 212.78 L0.04 217.11 A3.68208 3.60376 -180 0 0 1.41 219.97 A1.41796
							 1.3878 -180 0 0 2.99 220.23 A1.89751 1.85715 -180 0 0 3.89 221.64 A25.6694 25.1234 -180 0 0 16 224.44
							 A8.2964 8.11993 -180 0 0 19.9 223.43 A1.34508 1.31647 -180 0 0 21.46 223.68 A5.56005 5.44179 -180 0
							 0 24.08 221 L24.08 214.06 A10.4862 10.2632 -180 0 0 17.49 204.29 L17.43 204.28 A7.16605 7.01362 -180
							 1 0 6.61 203.53" class="st10"/>
			</g>
			<g id="shape1-32" v:mID="1" v:groupContext="groupContent">
				<v:textBlock v:margins="rect(4,4,4,4)" v:tabSpace="42.5197"/>
				<v:textRect cx="12.0472" cy="235.647" width="75.79" height="22.4037"/>
				<text x="-20.49" y="239.25" class="st2" v:langID="1033"><v:paragraph v:horizAlign="1"/><v:tabList/>Adminstrator</text>			</g>
		</g>
		<g id="group123-34" transform="translate(43.8455,-85.6004)" v:mID="123" v:groupContext="group">
			<v:custProps>
				<v:cp v:nameU="Name" v:lbl="Name" v:type="0" v:invis="false" v:ask="false" v:langID="1033"/>
				<v:cp v:nameU="Location" v:lbl="Location" v:type="0" v:invis="false" v:ask="false" v:langID="1033"/>
				<v:cp v:nameU="Building" v:lbl="Building" v:type="0" v:invis="false" v:ask="false" v:langID="1033"/>
				<v:cp v:nameU="Room" v:lbl="Room" v:type="0" v:invis="false" v:ask="false" v:langID="1033"/>
				<v:cp v:nameU="Department" v:lbl="Department" v:type="0" v:invis="false" v:ask="false" v:langID="1033"/>
				<v:cp v:nameU="ShapeClass" v:lbl="ShapeClass" v:type="0" v:invis="true" v:ask="false" v:langID="1033"
						v:val="VT4(Connectivity)"/>
				<v:cp v:nameU="ShapeType" v:lbl="ShapeType" v:type="0" v:invis="true" v:ask="false" v:langID="1033"
						v:val="VT4(User)"/>
			</v:custProps>
			<v:userDefs>
				<v:ud v:nameU="HasText" v:val="VT0(0):5"/>
				<v:ud v:nameU="ShapeClass" v:val="VT0(4):26"/>
				<v:ud v:nameU="ShapeType" v:val="VT0(4):26"/>
				<v:ud v:nameU="SolSH" v:val="VT15({BF0433D9-CD73-4EB5-8390-8653BE590246}):41"/>
				<v:ud v:nameU="visLegendShape" v:val="VT0(2):26"/>
				<v:ud v:nameU="visVersion" v:prompt="" v:val="VT0(15):26"/>
				<v:ud v:nameU="HasText" v:prompt="" v:val="VT0(1):5"/>
			</v:userDefs>
			<title>User.123</title>
			<desc>User</desc>
			<g id="shape124-35" v:mID="124" v:groupContext="shape" transform="translate(-4.60905,2.84217E-14)">
				<title>Sheet.124</title>
				<path d="M6.61 203.53 A10.8047 10.5749 -180 0 0 0 212.78 L0.04 217.11 A3.68208 3.60376 -180 0 0 1.41 219.97 A1.41796
							 1.3878 -180 0 0 2.99 220.23 A1.89751 1.85715 -180 0 0 3.89 221.64 A25.6694 25.1234 -180 0 0 16 224.44
							 A8.2964 8.11993 -180 0 0 19.9 223.43 A1.34508 1.31647 -180 0 0 21.46 223.68 A5.56005 5.44179 -180 0
							 0 24.08 221 L24.08 213.35 A10.5919 10.3666 -180 0 0 17.49 204.29 L17.43 204.28 A7.16323 7.01086 -180
							 1 0 6.62 203.53 L6.61 203.53 Z" class="st4"/>
				<path d="M6.61 203.53 A10.8047 10.5749 -180 0 0 0 212.78 L0.04 217.11 A3.68208 3.60376 -180 0 0 1.41 219.97 A1.41796
							 1.3878 -180 0 0 2.99 220.23 A1.89751 1.85715 -180 0 0 3.89 221.64 A25.6694 25.1234 -180 0 0 16 224.44
							 A8.2964 8.11993 -180 0 0 19.9 223.43 A1.34508 1.31647 -180 0 0 21.46 223.68 A5.56005 5.44179 -180 0
							 0 24.08 221 L24.08 213.35 A10.5919 10.3666 -180 0 0 17.49 204.29 L17.43 204.28 A7.16323 7.01086 -180
							 1 0 6.62 203.53" class="st5"/>
			</g>
			<g id="shape125-38" v:mID="125" v:groupContext="shape" transform="translate(0.0163047,-3.12639E-13)">
				<title>Sheet.125</title>
				<path d="M3.89 221.64 A25.6694 25.1234 -180 0 0 16 224.44 A8.2964 8.11993 -180 0 0 19.9 223.43 A1.34508 1.31647 -180
							 0 0 21.46 223.68 A5.56005 5.44179 -180 0 0 24.08 221 L24.08 213.35 A10.5919 10.3666 -180 0 0 17.49 204.29
							 L6.61 203.53 A10.8047 10.5749 -180 0 0 0 212.78 L0.04 217.11 A3.68208 3.60376 -180 0 0 1.41 219.97 A1.41796
							 1.3878 -180 0 0 2.99 220.23 A1.89751 1.85715 -180 0 0 3.89 221.64 Z" class="st6"/>
				<path d="M3.89 221.64 A25.6694 25.1234 -180 0 0 16 224.44 A8.2964 8.11993 -180 0 0 19.9 223.43 A1.34508 1.31647 -180
							 0 0 21.46 223.68 A5.56005 5.44179 -180 0 0 24.08 221 L24.08 213.35 A10.5919 10.3666 -180 0 0 17.49 204.29M6.61
							 203.53 A10.8047 10.5749 -180 0 0 0 212.78 L0.04 217.11 A3.68208 3.60376 -180 0 0 1.41 219.97 A1.41796
							 1.3878 -180 0 0 2.99 220.23 A1.89751 1.85715 -180 0 0 3.89 221.64" class="st7"/>
			</g>
			<g id="shape126-42" v:mID="126" v:groupContext="shape" transform="translate(5.20962,-18.1043)">
				<title>Sheet.126</title>
				<ellipse cx="7.16323" cy="217.434" rx="7.16323" ry="7.01086" class="st8"/>
			</g>
			<g id="shape127-45" v:mID="127" v:groupContext="shape" transform="translate(-218.392,183.35) rotate(-80.5423)">
				<title>Sheet.127</title>
				<path d="M-0 224.45 A24.8343 55.1945 0 0 1 13.44 224.45" class="st9"/>
			</g>
			<g id="shape128-49" v:mID="128" v:groupContext="shape" transform="translate(-202.759,239.997) rotate(-94.2553)">
				<title>Sheet.128</title>
				<path d="M-0 223.29 A48.0174 106.767 -180 0 0 14.07 223.29" class="st9"/>
			</g>
			<g id="shape129-53" v:mID="129" v:groupContext="shape" transform="translate(6.64226,-18.2223)">
				<title>Sheet.129</title>
				<path d="M0 221.63 A7.17672 7.02406 -180 0 0 10.82 222.39" class="st9"/>
			</g>
			<g id="shape130-57" v:mID="130" v:groupContext="shape" transform="translate(0.0163047,2.84217E-14)">
				<title>Sheet.130</title>
				<path d="M6.61 203.53 A11.0237 10.7892 -180 0 0 0 212.78 L0.04 217.11 A3.68208 3.60376 -180 0 0 1.41 219.97 A1.41796
							 1.3878 -180 0 0 2.99 220.23 A1.89751 1.85715 -180 0 0 3.89 221.64 A25.6694 25.1234 -180 0 0 16 224.44
							 A8.2964 8.11993 -180 0 0 19.9 223.43 A1.34508 1.31647 -180 0 0 21.46 223.68 A5.56005 5.44179 -180 0
							 0 24.08 221 L24.08 214.06 A10.4862 10.2632 -180 0 0 17.49 204.29 L17.43 204.28 A7.16605 7.01362 -180
							 1 0 6.61 203.53" class="st10"/>
			</g>
			<g id="shape123-60" v:mID="123" v:groupContext="groupContent">
				<v:textBlock v:margins="rect(4,4,4,4)" v:tabSpace="42.5197"/>
				<v:textRect cx="12.0472" cy="235.647" width="33.27" height="22.4037"/>
				<text x="0.77" y="239.25" class="st2" v:langID="1033"><v:paragraph v:horizAlign="1"/><v:tabList/>User</text>			</g>
		</g>
		<g id="shape139-62" v:mID="139" v:groupContext="shape" transform="translate(206.838,-75.2067)">
			<title>Rounded Rectangle</title>
			<desc>Data Qualture</desc>
			<v:userDefs>
				<v:ud v:nameU="CTypeTopLeftSnip" v:prompt="" v:val="VT0(0):5"/>
				<v:ud v:nameU="CTypeTopRightSnip" v:prompt="" v:val="VT0(0):5"/>
				<v:ud v:nameU="CTypeBotLeftSnip" v:prompt="" v:val="VT0(0):5"/>
				<v:ud v:nameU="CTypeBotRightSnip" v:prompt="" v:val="VT0(0):5"/>
				<v:ud v:nameU="CornerLockHoriz" v:prompt="" v:val="VT0(1):5"/>
				<v:ud v:nameU="CornerLockVert" v:prompt="" v:val="VT0(1):5"/>
				<v:ud v:nameU="CornerLockDiag" v:prompt="" v:val="VT0(0):5"/>
				<v:ud v:nameU="TopLeftOffset" v:prompt="" v:val="VT0(0.15748031496063):24"/>
				<v:ud v:nameU="TopRightOffset" v:prompt="" v:val="VT0(0.15748031496063):24"/>
				<v:ud v:nameU="BotLeftOffset" v:prompt="" v:val="VT0(0.15748031496063):24"/>
				<v:ud v:nameU="BotRightOffset" v:prompt="" v:val="VT0(0.15748031496063):24"/>
				<v:ud v:nameU="visVersion" v:prompt="" v:val="VT0(15):26"/>
				<v:ud v:nameU="TopLeftOffset" v:prompt="" v:val="VT0(0):1"/>
				<v:ud v:nameU="TopRightOffset" v:prompt="" v:val="VT0(0):1"/>
				<v:ud v:nameU="BotLeftOffset" v:prompt="" v:val="VT0(0):1"/>
				<v:ud v:nameU="BotRightOffset" v:prompt="" v:val="VT0(0):1"/>
			</v:userDefs>
			<v:textBlock v:margins="rect(4,4,4,4)" v:tabSpace="42.5197"/>
			<v:textRect cx="35.4331" cy="197.988" width="70.87" height="52.9134"/>
			<path d="M0 224.45 L70.87 224.45 L70.87 171.53 L0 171.53 L0 224.45 Z" class="st11"/>
			<text x="23.98" y="194.39" class="st2" v:langID="1033"><v:paragraph v:horizAlign="1"/><v:tabList/>Data <tspan x="13.75"
						dy="1.2em" class="st3">Qualture</tspan></text>		</g>
		<g id="shape141-66" v:mID="141" v:groupContext="shape" v:layerMember="1" transform="translate(66.3516,-182.346)">
			<title>Dynamic connector</title>
			<desc>Manage sources, targets, queries</desc>
			<v:textBlock v:margins="rect(4,4,4,4)" v:tabSpace="42.5197"/>
			<v:textRect cx="74.8049" cy="225.948" width="96.07" height="51.2039"/>
			<path d="M0 224.45 L175.92 224.45 L175.92 268.86" class="st12"/>
			<rect v:rectContext="textBkgnd" x="33.4874" y="204.348" width="82.635" height="43.2002" class="st14"/>
			<text x="33.49" y="215.15" class="st2" v:langID="1033"><v:paragraph v:horizAlign="1"/><v:tabList/>Manage sources, <v:newlineChar/><tspan
						x="56.17" dy="1.2em" class="st3">targets, <v:newlineChar/></tspan><tspan x="56.71" dy="1.2em" class="st3">queries</tspan></text>		</g>
		<g id="shape142-76" v:mID="142" v:groupContext="shape" v:layerMember="1" transform="translate(66.3516,-94.5768)">
			<title>Dynamic connector.142</title>
			<desc>View rules, Execute queries, View statistics, Receive notific...</desc>
			<v:textBlock v:margins="rect(4,4,4,4)" v:tabSpace="42.5197"/>
			<v:textRect cx="70.243" cy="217.359" width="111.86" height="65.604"/>
			<path d="M0 217.36 L130.68 217.36" class="st12"/>
			<rect v:rectContext="textBkgnd" x="19.6762" y="188.559" width="101.134" height="57.6002" class="st14"/>
			<text x="43.38" y="199.36" class="st2" v:langID="1033"><v:paragraph v:horizAlign="1"/><v:tabList/>View rules,<v:newlineChar/><tspan
						x="30.1" dy="1.2em" class="st3">Execute queries,<v:newlineChar/></tspan><tspan x="34.1" dy="1.2em"
						class="st3">View statistics,<v:newlineChar/></tspan><tspan x="19.68" dy="1.2em" class="st3">Receive notifications</tspan></text>		</g>
		<g id="shape147-86" v:mID="147" v:groupContext="shape" v:layerMember="1" transform="translate(277.704,-94.5768)">
			<title>Dynamic connector.147</title>
			<desc>Check data qulity</desc>
			<v:textBlock v:margins="rect(4,4,4,4)" v:tabSpace="42.5197"/>
			<v:textRect cx="41.1024" cy="217.359" width="67.17" height="36.8038"/>
			<path d="M0 217.36 L72.39 217.36" class="st12"/>
			<rect v:rectContext="textBkgnd" x="14.234" y="202.959" width="53.7366" height="28.8001" class="st14"/>
			<text x="14.23" y="213.76" class="st2" v:langID="1033"><v:paragraph v:horizAlign="1"/><v:tabList/>Check data <v:newlineChar/><tspan
						x="27.32" dy="1.2em" class="st3">qulity</tspan></text>		</g>
		<g id="shape148-94" v:mID="148" v:groupContext="shape" transform="translate(240.121,-23.3356)">
			<title>Rectangle</title>
			<v:userDefs>
				<v:ud v:nameU="visVersion" v:val="VT0(15):26"/>
			</v:userDefs>
			<rect x="0" y="217.359" width="21.4173" height="7.08661" class="st11"/>
		</g>
		<g id="shape149-96" v:mID="149" v:groupContext="shape" transform="translate(258.338,-18.375)">
			<title>Sheet.149</title>
			<desc>New system</desc>
			<v:textBlock v:margins="rect(4,4,4,4)" v:tabSpace="42.5197"/>
			<v:textRect cx="35.4331" cy="215.941" width="70.87" height="17.0079"/>
			<rect x="0" y="207.437" width="70.8661" height="17.0079" class="st15"/>
			<text x="4" y="219.54" class="st2" v:langID="1033"><v:paragraph/><v:tabList/>New system</text>		</g>
		<g id="shape151-99" v:mID="151" v:groupContext="shape" transform="translate(337.034,-23.3356)">
			<title>Rectangle.151</title>
			<v:userDefs>
				<v:ud v:nameU="visVersion" v:val="VT0(15):26"/>
			</v:userDefs>
			<rect x="0" y="217.359" width="21.4173" height="7.08661" class="st1"/>
		</g>
		<g id="shape152-101" v:mID="152" v:groupContext="shape" transform="translate(358.294,-18.375)">
			<title>Sheet.152</title>
			<desc>Existing system</desc>
			<v:textBlock v:margins="rect(4,4,4,4)" v:tabSpace="42.5197"/>
			<v:textRect cx="47.7385" cy="215.941" width="95.48" height="17.0079"/>
			<rect x="0" y="207.437" width="95.477" height="17.0079" class="st15"/>
			<text x="4" y="219.54" class="st2" v:langID="1033"><v:paragraph/><v:tabList/>Existing system</text>		</g>
		<g id="shape154-104" v:mID="154" v:groupContext="shape" transform="translate(368.412,-61.4014)">
			<title>Rounded Rectangle.154</title>
			<desc>External systems</desc>
			<v:userDefs>
				<v:ud v:nameU="CTypeTopLeftSnip" v:prompt="" v:val="VT0(0):5"/>
				<v:ud v:nameU="CTypeTopRightSnip" v:prompt="" v:val="VT0(0):5"/>
				<v:ud v:nameU="CTypeBotLeftSnip" v:prompt="" v:val="VT0(0):5"/>
				<v:ud v:nameU="CTypeBotRightSnip" v:prompt="" v:val="VT0(0):5"/>
				<v:ud v:nameU="CornerLockHoriz" v:prompt="" v:val="VT0(1):5"/>
				<v:ud v:nameU="CornerLockVert" v:prompt="" v:val="VT0(1):5"/>
				<v:ud v:nameU="CornerLockDiag" v:prompt="" v:val="VT0(0):5"/>
				<v:ud v:nameU="TopLeftOffset" v:prompt="" v:val="VT0(0.15748031496063):24"/>
				<v:ud v:nameU="TopRightOffset" v:prompt="" v:val="VT0(0.15748031496063):24"/>
				<v:ud v:nameU="BotLeftOffset" v:prompt="" v:val="VT0(0.15748031496063):24"/>
				<v:ud v:nameU="BotRightOffset" v:prompt="" v:val="VT0(0.15748031496063):24"/>
				<v:ud v:nameU="visVersion" v:prompt="" v:val="VT0(15):26"/>
				<v:ud v:nameU="TopLeftOffset" v:prompt="" v:val="VT0(0):1"/>
				<v:ud v:nameU="TopRightOffset" v:prompt="" v:val="VT0(0):1"/>
				<v:ud v:nameU="BotLeftOffset" v:prompt="" v:val="VT0(0):1"/>
				<v:ud v:nameU="BotRightOffset" v:prompt="" v:val="VT0(0):1"/>
			</v:userDefs>
			<v:textBlock v:margins="rect(4,4,4,4)" v:tabSpace="42.5197"/>
			<v:textRect cx="35.4331" cy="197.988" width="70.87" height="52.9134"/>
			<path d="M0 224.45 L70.87 224.45 L70.87 171.53 L0 171.53 L0 224.45 Z" class="st1"/>
			<text x="15.41" y="194.39" class="st2" v:langID="1033"><v:paragraph v:horizAlign="1"/><v:tabList/>External <tspan
						x="15.89" dy="1.2em" class="st3">systems</tspan></text>		</g>
		<g id="shape153-108" v:mID="153" v:groupContext="shape" transform="translate(364.16,-68.9605)">
			<title>Rounded Rectangle.153</title>
			<desc>External systems</desc>
			<v:userDefs>
				<v:ud v:nameU="CTypeTopLeftSnip" v:prompt="" v:val="VT0(0):5"/>
				<v:ud v:nameU="CTypeTopRightSnip" v:prompt="" v:val="VT0(0):5"/>
				<v:ud v:nameU="CTypeBotLeftSnip" v:prompt="" v:val="VT0(0):5"/>
				<v:ud v:nameU="CTypeBotRightSnip" v:prompt="" v:val="VT0(0):5"/>
				<v:ud v:nameU="CornerLockHoriz" v:prompt="" v:val="VT0(1):5"/>
				<v:ud v:nameU="CornerLockVert" v:prompt="" v:val="VT0(1):5"/>
				<v:ud v:nameU="CornerLockDiag" v:prompt="" v:val="VT0(0):5"/>
				<v:ud v:nameU="TopLeftOffset" v:prompt="" v:val="VT0(0.15748031496063):24"/>
				<v:ud v:nameU="TopRightOffset" v:prompt="" v:val="VT0(0.15748031496063):24"/>
				<v:ud v:nameU="BotLeftOffset" v:prompt="" v:val="VT0(0.15748031496063):24"/>
				<v:ud v:nameU="BotRightOffset" v:prompt="" v:val="VT0(0.15748031496063):24"/>
				<v:ud v:nameU="visVersion" v:prompt="" v:val="VT0(15):26"/>
				<v:ud v:nameU="TopLeftOffset" v:prompt="" v:val="VT0(0):1"/>
				<v:ud v:nameU="TopRightOffset" v:prompt="" v:val="VT0(0):1"/>
				<v:ud v:nameU="BotLeftOffset" v:prompt="" v:val="VT0(0):1"/>
				<v:ud v:nameU="BotRightOffset" v:prompt="" v:val="VT0(0):1"/>
			</v:userDefs>
			<v:textBlock v:margins="rect(4,4,4,4)" v:tabSpace="42.5197"/>
			<v:textRect cx="35.4331" cy="197.988" width="70.87" height="52.9134"/>
			<path d="M0 224.45 L70.87 224.45 L70.87 171.53 L0 171.53 L0 224.45 Z" class="st1"/>
			<text x="15.41" y="194.39" class="st2" v:langID="1033"><v:paragraph v:horizAlign="1"/><v:tabList/>External <tspan
						x="15.89" dy="1.2em" class="st3">systems</tspan></text>		</g>
		<g id="shape145-112" v:mID="145" v:groupContext="shape" transform="translate(359.908,-75.2067)">
			<title>Rounded Rectangle.145</title>
			<desc>External systems</desc>
			<v:userDefs>
				<v:ud v:nameU="CTypeTopLeftSnip" v:prompt="" v:val="VT0(0):5"/>
				<v:ud v:nameU="CTypeTopRightSnip" v:prompt="" v:val="VT0(0):5"/>
				<v:ud v:nameU="CTypeBotLeftSnip" v:prompt="" v:val="VT0(0):5"/>
				<v:ud v:nameU="CTypeBotRightSnip" v:prompt="" v:val="VT0(0):5"/>
				<v:ud v:nameU="CornerLockHoriz" v:prompt="" v:val="VT0(1):5"/>
				<v:ud v:nameU="CornerLockVert" v:prompt="" v:val="VT0(1):5"/>
				<v:ud v:nameU="CornerLockDiag" v:prompt="" v:val="VT0(0):5"/>
				<v:ud v:nameU="TopLeftOffset" v:prompt="" v:val="VT0(0.15748031496063):24"/>
				<v:ud v:nameU="TopRightOffset" v:prompt="" v:val="VT0(0.15748031496063):24"/>
				<v:ud v:nameU="BotLeftOffset" v:prompt="" v:val="VT0(0.15748031496063):24"/>
				<v:ud v:nameU="BotRightOffset" v:prompt="" v:val="VT0(0.15748031496063):24"/>
				<v:ud v:nameU="visVersion" v:prompt="" v:val="VT0(15):26"/>
				<v:ud v:nameU="TopLeftOffset" v:prompt="" v:val="VT0(0):1"/>
				<v:ud v:nameU="TopRightOffset" v:prompt="" v:val="VT0(0):1"/>
				<v:ud v:nameU="BotLeftOffset" v:prompt="" v:val="VT0(0):1"/>
				<v:ud v:nameU="BotRightOffset" v:prompt="" v:val="VT0(0):1"/>
			</v:userDefs>
			<v:textBlock v:margins="rect(4,4,4,4)" v:tabSpace="42.5197"/>
			<v:textRect cx="35.4331" cy="197.988" width="70.87" height="52.9134"/>
			<path d="M0 224.45 L70.87 224.45 L70.87 171.53 L0 171.53 L0 224.45 Z" class="st1"/>
			<text x="15.41" y="194.39" class="st2" v:langID="1033"><v:paragraph v:horizAlign="1"/><v:tabList/>External <tspan
						x="15.89" dy="1.2em" class="st3">systems</tspan></text>		</g>
	</g>
</svg>
