<?xml version="1.0" encoding="UTF-8" standalone="no"?>
<!DOCTYPE svg PUBLIC "-//W3C//DTD SVG 1.1//EN" "http://www.w3.org/Graphics/SVG/1.1/DTD/svg11.dtd">
<!-- Generated by Microsoft Visio, SVG Export c2.svg C2 -->
<svg xmlns="http://www.w3.org/2000/svg" xmlns:xlink="http://www.w3.org/1999/xlink" xmlns:ev="http://www.w3.org/2001/xml-events"
		xmlns:v="http://schemas.microsoft.com/visio/2003/SVGExtensions/" width="9.8683in" height="7.42405in"
		viewBox="0 0 710.518 534.532" xml:space="preserve" color-interpolation-filters="sRGB" class="st17">
	<v:documentProperties v:langID="1049" v:metric="true" v:viewMarkup="false">
		<v:userDefs>
			<v:ud v:nameU="msvNoAutoConnect" v:val="VT0(1):26"/>
		</v:userDefs>
	</v:documentProperties>

	<style type="text/css">
	<![CDATA[
		.st1 {fill:#ffffff;stroke:#000000;stroke-linecap:round;stroke-linejoin:round;stroke-width:0.24}
		.st2 {fill:#ff00ff;fill-opacity:0}
		.st3 {stroke:#000000;stroke-linecap:round;stroke-linejoin:round;stroke-opacity:0;stroke-width:0.72}
		.st4 {fill:url(#grad3-12)}
		.st5 {stroke:#373773;stroke-linecap:round;stroke-linejoin:round;stroke-width:0.72}
		.st6 {fill:url(#grad3-12);stroke:#555555;stroke-linecap:round;stroke-linejoin:round;stroke-width:0.72}
		.st7 {stroke:#555555;stroke-linecap:round;stroke-linejoin:round;stroke-width:0.72}
		.st8 {stroke:#000000;stroke-linecap:round;stroke-linejoin:round;stroke-width:2}
		.st9 {fill:#000000;font-family:Calibri;font-size:1.00001em}
		.st10 {fill:#ffc000;stroke:#000000;stroke-linecap:round;stroke-linejoin:round;stroke-width:0.24}
		.st11 {font-size:1em}
		.st12 {marker-end:url(#mrkr13-73);stroke:#000000;stroke-linecap:round;stroke-linejoin:round;stroke-width:0.75}
		.st13 {fill:#000000;fill-opacity:1;stroke:#000000;stroke-opacity:1;stroke-width:0.22935779816514}
		.st14 {fill:#ffffff;stroke:none;stroke-linecap:butt;stroke-width:7.2}
		.st15 {fill:#92d050;stroke:#000000;stroke-linecap:round;stroke-linejoin:round;stroke-width:0.24}
		.st16 {fill:none;stroke:none;stroke-linecap:round;stroke-linejoin:round;stroke-width:0.75}
		.st17 {fill:none;fill-rule:evenodd;font-size:12px;overflow:visible;stroke-linecap:square;stroke-miterlimit:3}
	]]>
	</style>

	<defs id="Patterns_And_Gradients">
		<radialGradient id="grad3-12" cx="0.5" cy="0.5" r="0.73">
			<stop offset="0" stop-color="#94d051" stop-opacity="1"/>
			<stop offset="1" stop-color="#76b531" stop-opacity="1"/>
		</radialGradient>
	</defs>
	<defs id="Markers">
		<g id="lend13">
			<path d="M 3 1 L 0 0 L 3 -1 L 3 1 " style="stroke:none"/>
		</g>
		<marker id="mrkr13-73" class="st13" v:arrowType="13" v:arrowSize="2" v:setback="13.08" refX="-13.08" orient="auto"
				markerUnits="strokeWidth" overflow="visible">
			<use xlink:href="#lend13" transform="scale(-4.36,-4.36) "/>
		</marker>
	</defs>
	<g v:mID="4" v:index="2" v:groupContext="foregroundPage">
		<title>C2</title>
		<v:pageProperties v:drawingScale="0.0393701" v:pageScale="0.0393701" v:drawingUnits="24" v:shadowOffsetX="8.50394"
				v:shadowOffsetY="-8.50394"/>
		<v:layer v:name="Connector" v:index="0"/>
		<g id="shape44-1" v:mID="44" v:groupContext="shape" transform="translate(543.849,-123.103)">
			<title>Rounded Rectangle.44</title>
			<v:userDefs>
				<v:ud v:nameU="CTypeTopLeftSnip" v:prompt="" v:val="VT0(0):5"/>
				<v:ud v:nameU="CTypeTopRightSnip" v:prompt="" v:val="VT0(0):5"/>
				<v:ud v:nameU="CTypeBotLeftSnip" v:prompt="" v:val="VT0(0):5"/>
				<v:ud v:nameU="CTypeBotRightSnip" v:prompt="" v:val="VT0(0):5"/>
				<v:ud v:nameU="CornerLockHoriz" v:prompt="" v:val="VT0(1):5"/>
				<v:ud v:nameU="CornerLockVert" v:prompt="" v:val="VT0(1):5"/>
				<v:ud v:nameU="CornerLockDiag" v:prompt="" v:val="VT0(0):5"/>
				<v:ud v:nameU="TopLeftOffset" v:prompt="" v:val="VT0(0.15748031496063):24"/>
				<v:ud v:nameU="TopRightOffset" v:prompt="" v:val="VT0(0.15748031496063):24"/>
				<v:ud v:nameU="BotLeftOffset" v:prompt="" v:val="VT0(0.15748031496063):24"/>
				<v:ud v:nameU="BotRightOffset" v:prompt="" v:val="VT0(0.15748031496063):24"/>
				<v:ud v:nameU="visVersion" v:prompt="" v:val="VT0(15):26"/>
				<v:ud v:nameU="TopLeftOffset" v:prompt="" v:val="VT0(0):1"/>
				<v:ud v:nameU="TopRightOffset" v:prompt="" v:val="VT0(0):1"/>
				<v:ud v:nameU="BotLeftOffset" v:prompt="" v:val="VT0(0):1"/>
				<v:ud v:nameU="BotRightOffset" v:prompt="" v:val="VT0(0):1"/>
			</v:userDefs>
			<path d="M2 534.53 L134.47 534.53 A2 2 -180 0 0 136.47 532.53 L136.47 319.48 A2 2 -180 0 0 134.47 317.48 L2 317.48 A2
						 2 -180 0 0 -0 319.48 L0 532.53 A2 2 -180 0 0 2 534.53 Z" class="st1"/>
		</g>
		<g id="shape42-3" v:mID="42" v:groupContext="shape" transform="translate(190.411,-18.12)">
			<title>Rounded Rectangle.42</title>
			<v:userDefs>
				<v:ud v:nameU="CTypeTopLeftSnip" v:prompt="" v:val="VT0(0):5"/>
				<v:ud v:nameU="CTypeTopRightSnip" v:prompt="" v:val="VT0(0):5"/>
				<v:ud v:nameU="CTypeBotLeftSnip" v:prompt="" v:val="VT0(0):5"/>
				<v:ud v:nameU="CTypeBotRightSnip" v:prompt="" v:val="VT0(0):5"/>
				<v:ud v:nameU="CornerLockHoriz" v:prompt="" v:val="VT0(1):5"/>
				<v:ud v:nameU="CornerLockVert" v:prompt="" v:val="VT0(1):5"/>
				<v:ud v:nameU="CornerLockDiag" v:prompt="" v:val="VT0(0):5"/>
				<v:ud v:nameU="TopLeftOffset" v:prompt="" v:val="VT0(0.15748031496063):24"/>
				<v:ud v:nameU="TopRightOffset" v:prompt="" v:val="VT0(0.15748031496063):24"/>
				<v:ud v:nameU="BotLeftOffset" v:prompt="" v:val="VT0(0.15748031496063):24"/>
				<v:ud v:nameU="BotRightOffset" v:prompt="" v:val="VT0(0.15748031496063):24"/>
				<v:ud v:nameU="visVersion" v:prompt="" v:val="VT0(15):26"/>
				<v:ud v:nameU="TopLeftOffset" v:prompt="" v:val="VT0(0):1"/>
				<v:ud v:nameU="TopRightOffset" v:prompt="" v:val="VT0(0):1"/>
				<v:ud v:nameU="BotLeftOffset" v:prompt="" v:val="VT0(0):1"/>
				<v:ud v:nameU="BotRightOffset" v:prompt="" v:val="VT0(0):1"/>
			</v:userDefs>
			<path d="M2 534.53 L202.35 534.53 A2 2 -180 0 0 204.35 532.53 L204.35 96.05 A2 2 -180 0 0 202.35 94.05 L2 94.05 A2 2
						 -180 0 0 -0 96.05 L0 532.53 A2 2 -180 0 0 2 534.53 Z" class="st1"/>
		</g>
		<g id="group1-5" transform="translate(28.3465,-383.487)" v:mID="1" v:groupContext="group">
			<v:custProps>
				<v:cp v:nameU="Name" v:lbl="Name" v:type="0" v:invis="false" v:ask="false" v:langID="1033"/>
				<v:cp v:nameU="Location" v:lbl="Location" v:type="0" v:invis="false" v:ask="false" v:langID="1033"/>
				<v:cp v:nameU="Building" v:lbl="Building" v:type="0" v:invis="false" v:ask="false" v:langID="1033"/>
				<v:cp v:nameU="Room" v:lbl="Room" v:type="0" v:invis="false" v:ask="false" v:langID="1033"/>
				<v:cp v:nameU="Department" v:lbl="Department" v:type="0" v:invis="false" v:ask="false" v:langID="1033"/>
				<v:cp v:nameU="ShapeClass" v:lbl="ShapeClass" v:type="0" v:invis="true" v:ask="false" v:langID="1033"
						v:val="VT4(Connectivity)"/>
				<v:cp v:nameU="ShapeType" v:lbl="ShapeType" v:type="0" v:invis="true" v:ask="false" v:langID="1033"
						v:val="VT4(User)"/>
			</v:custProps>
			<v:userDefs>
				<v:ud v:nameU="HasText" v:val="VT0(0):5"/>
				<v:ud v:nameU="ShapeClass" v:val="VT0(4):26"/>
				<v:ud v:nameU="ShapeType" v:val="VT0(4):26"/>
				<v:ud v:nameU="SolSH" v:val="VT15({BF0433D9-CD73-4EB5-8390-8653BE590246}):41"/>
				<v:ud v:nameU="visLegendShape" v:val="VT0(2):26"/>
				<v:ud v:nameU="visVersion" v:prompt="" v:val="VT0(15):26"/>
				<v:ud v:nameU="HasText" v:prompt="" v:val="VT0(1):5"/>
			</v:userDefs>
			<title>User</title>
			<desc>Adminstrator</desc>
			<g id="shape2-6" v:mID="2" v:groupContext="shape" transform="translate(-4.60905,0)">
				<title>Sheet.2</title>
				<path d="M5.15 518.23 A8.4213 8.24217 -180 0 0 0 525.44 L0.03 528.82 A2.86986 2.80881 -180 0 0 1.1 531.05 A1.10517
							 1.08166 -180 0 0 2.33 531.25 A1.47894 1.44749 -180 0 0 3.03 532.34 A20.0071 19.5815 -180 0 0 12.47 534.53
							 A6.46631 6.32877 -180 0 0 15.51 533.74 A1.04837 1.02607 -180 0 0 16.73 533.93 A4.33357 4.24139 -180
							 0 0 18.77 531.85 L18.77 525.89 A8.25542 8.07982 -180 0 0 13.63 518.82 L13.58 518.82 A5.5831 5.46434
							 -180 1 0 5.16 518.23 L5.15 518.23 Z" class="st2"/>
				<path d="M5.15 518.23 A8.4213 8.24217 -180 0 0 0 525.44 L0.03 528.82 A2.86986 2.80881 -180 0 0 1.1 531.05 A1.10517
							 1.08166 -180 0 0 2.33 531.25 A1.47894 1.44749 -180 0 0 3.03 532.34 A20.0071 19.5815 -180 0 0 12.47 534.53
							 A6.46631 6.32877 -180 0 0 15.51 533.74 A1.04837 1.02607 -180 0 0 16.73 533.93 A4.33357 4.24139 -180
							 0 0 18.77 531.85 L18.77 525.89 A8.25542 8.07982 -180 0 0 13.63 518.82 L13.58 518.82 A5.5831 5.46434
							 -180 1 0 5.16 518.23" class="st3"/>
			</g>
			<g id="shape3-9" v:mID="3" v:groupContext="shape" transform="translate(0.0127081,-2.27374E-13)">
				<title>Sheet.3</title>
				<path d="M3.03 532.34 A20.0071 19.5815 -180 0 0 12.47 534.53 A6.46631 6.32877 -180 0 0 15.51 533.74 A1.04837 1.02607
							 -180 0 0 16.73 533.93 A4.33357 4.24139 -180 0 0 18.77 531.85 L18.77 525.89 A8.25542 8.07982 -180 0 0
							 13.63 518.82 L5.15 518.23 A8.4213 8.24217 -180 0 0 0 525.44 L0.03 528.82 A2.86986 2.80881 -180 0 0 1.1
							 531.05 A1.10517 1.08166 -180 0 0 2.33 531.25 A1.47894 1.44749 -180 0 0 3.03 532.34 Z" class="st4"/>
				<path d="M3.03 532.34 A20.0071 19.5815 -180 0 0 12.47 534.53 A6.46631 6.32877 -180 0 0 15.51 533.74 A1.04837 1.02607
							 -180 0 0 16.73 533.93 A4.33357 4.24139 -180 0 0 18.77 531.85 L18.77 525.89 A8.25542 8.07982 -180 0 0
							 13.63 518.82M5.15 518.23 A8.4213 8.24217 -180 0 0 0 525.44 L0.03 528.82 A2.86986 2.80881 -180 0 0 1.1
							 531.05 A1.10517 1.08166 -180 0 0 2.33 531.25 A1.47894 1.44749 -180 0 0 3.03 532.34" class="st5"/>
			</g>
			<g id="shape4-14" v:mID="4" v:groupContext="shape" transform="translate(4.06044,-14.1107)">
				<title>Sheet.4</title>
				<ellipse cx="5.5831" cy="529.067" rx="5.5831" ry="5.46434" class="st6"/>
			</g>
			<g id="shape5-17" v:mID="5" v:groupContext="shape" transform="translate(-524.926,443.413) rotate(-80.5423)">
				<title>Sheet.5</title>
				<path d="M0 534.53 A19.3562 55.1945 0 0 1 10.47 534.53" class="st7"/>
			</g>
			<g id="shape6-21" v:mID="6" v:groupContext="shape" transform="translate(-516.385,573.317) rotate(-94.2553)">
				<title>Sheet.6</title>
				<path d="M-0 533.38 A37.4253 106.767 -180 0 0 10.96 533.38" class="st7"/>
			</g>
			<g id="shape7-25" v:mID="7" v:groupContext="shape" transform="translate(5.17706,-14.2027)">
				<title>Sheet.7</title>
				<path d="M0 532.34 A5.59362 5.47463 -180 0 0 8.43 532.93" class="st7"/>
			</g>
			<g id="shape8-29" v:mID="8" v:groupContext="shape" transform="translate(0.0127081,0)">
				<title>Sheet.8</title>
				<path d="M5.15 518.23 A8.59197 8.40921 -180 0 0 0 525.44 L0.03 528.82 A2.86986 2.80881 -180 0 0 1.1 531.05 A1.10517
							 1.08166 -180 0 0 2.33 531.25 A1.47894 1.44749 -180 0 0 3.03 532.34 A20.0071 19.5815 -180 0 0 12.47 534.53
							 A6.46631 6.32877 -180 0 0 15.51 533.74 A1.04837 1.02607 -180 0 0 16.73 533.93 A4.33357 4.24139 -180
							 0 0 18.77 531.85 L18.77 526.44 A8.17309 7.99924 -180 0 0 13.63 518.82 L13.58 518.82 A5.5853 5.46649
							 -180 1 0 5.15 518.23" class="st8"/>
			</g>
			<g id="shape1-32" v:mID="1" v:groupContext="groupContent">
				<v:textBlock v:margins="rect(4,4,4,4)" v:tabSpace="42.5197"/>
				<v:textRect cx="9.38976" cy="545.734" width="75.79" height="22.4037"/>
				<text x="-23.14" y="549.33" class="st9" v:langID="1033"><v:paragraph v:horizAlign="1"/><v:tabList/>Adminstrator</text>			</g>
		</g>
		<g id="group9-34" transform="translate(25.689,-198.425)" v:mID="9" v:groupContext="group">
			<v:custProps>
				<v:cp v:nameU="Name" v:lbl="Name" v:type="0" v:invis="false" v:ask="false" v:langID="1033"/>
				<v:cp v:nameU="Location" v:lbl="Location" v:type="0" v:invis="false" v:ask="false" v:langID="1033"/>
				<v:cp v:nameU="Building" v:lbl="Building" v:type="0" v:invis="false" v:ask="false" v:langID="1033"/>
				<v:cp v:nameU="Room" v:lbl="Room" v:type="0" v:invis="false" v:ask="false" v:langID="1033"/>
				<v:cp v:nameU="Department" v:lbl="Department" v:type="0" v:invis="false" v:ask="false" v:langID="1033"/>
				<v:cp v:nameU="ShapeClass" v:lbl="ShapeClass" v:type="0" v:invis="true" v:ask="false" v:langID="1033"
						v:val="VT4(Connectivity)"/>
				<v:cp v:nameU="ShapeType" v:lbl="ShapeType" v:type="0" v:invis="true" v:ask="false" v:langID="1033"
						v:val="VT4(User)"/>
			</v:custProps>
			<v:userDefs>
				<v:ud v:nameU="HasText" v:val="VT0(0):5"/>
				<v:ud v:nameU="ShapeClass" v:val="VT0(4):26"/>
				<v:ud v:nameU="ShapeType" v:val="VT0(4):26"/>
				<v:ud v:nameU="SolSH" v:val="VT15({BF0433D9-CD73-4EB5-8390-8653BE590246}):41"/>
				<v:ud v:nameU="visLegendShape" v:val="VT0(2):26"/>
				<v:ud v:nameU="visVersion" v:prompt="" v:val="VT0(15):26"/>
				<v:ud v:nameU="HasText" v:prompt="" v:val="VT0(1):5"/>
			</v:userDefs>
			<title>User.123</title>
			<desc>User</desc>
			<g id="shape10-35" v:mID="10" v:groupContext="shape" transform="translate(-4.60905,0)">
				<title>Sheet.10</title>
				<path d="M6.61 513.62 A10.8047 10.5749 -180 0 0 0 522.87 L0.04 527.2 A3.68208 3.60376 -180 0 0 1.41 530.06 A1.41796
							 1.3878 -180 0 0 2.99 530.32 A1.89751 1.85715 -180 0 0 3.89 531.72 A25.6694 25.1234 -180 0 0 16 534.53
							 A8.2964 8.11993 -180 0 0 19.9 533.51 A1.34508 1.31647 -180 0 0 21.46 533.76 A5.56005 5.44179 -180 0
							 0 24.08 531.09 L24.08 523.44 A10.5919 10.3666 -180 0 0 17.49 514.37 L17.43 514.37 A7.16323 7.01086 -180
							 1 0 6.62 513.62 L6.61 513.62 Z" class="st2"/>
				<path d="M6.61 513.62 A10.8047 10.5749 -180 0 0 0 522.87 L0.04 527.2 A3.68208 3.60376 -180 0 0 1.41 530.06 A1.41796
							 1.3878 -180 0 0 2.99 530.32 A1.89751 1.85715 -180 0 0 3.89 531.72 A25.6694 25.1234 -180 0 0 16 534.53
							 A8.2964 8.11993 -180 0 0 19.9 533.51 A1.34508 1.31647 -180 0 0 21.46 533.76 A5.56005 5.44179 -180 0
							 0 24.08 531.09 L24.08 523.44 A10.5919 10.3666 -180 0 0 17.49 514.37 L17.43 514.37 A7.16323 7.01086 -180
							 1 0 6.62 513.62" class="st3"/>
			</g>
			<g id="shape11-38" v:mID="11" v:groupContext="shape" transform="translate(0.0163047,-2.27374E-13)">
				<title>Sheet.11</title>
				<path d="M3.89 531.72 A25.6694 25.1234 -180 0 0 16 534.53 A8.2964 8.11993 -180 0 0 19.9 533.51 A1.34508 1.31647 -180
							 0 0 21.46 533.76 A5.56005 5.44179 -180 0 0 24.08 531.09 L24.08 523.44 A10.5919 10.3666 -180 0 0 17.49
							 514.37 L6.61 513.62 A10.8047 10.5749 -180 0 0 0 522.87 L0.04 527.2 A3.68208 3.60376 -180 0 0 1.41 530.06
							 A1.41796 1.3878 -180 0 0 2.99 530.32 A1.89751 1.85715 -180 0 0 3.89 531.72 Z" class="st4"/>
				<path d="M3.89 531.72 A25.6694 25.1234 -180 0 0 16 534.53 A8.2964 8.11993 -180 0 0 19.9 533.51 A1.34508 1.31647 -180
							 0 0 21.46 533.76 A5.56005 5.44179 -180 0 0 24.08 531.09 L24.08 523.44 A10.5919 10.3666 -180 0 0 17.49
							 514.37M6.61 513.62 A10.8047 10.5749 -180 0 0 0 522.87 L0.04 527.2 A3.68208 3.60376 -180 0 0 1.41 530.06
							 A1.41796 1.3878 -180 0 0 2.99 530.32 A1.89751 1.85715 -180 0 0 3.89 531.72" class="st5"/>
			</g>
			<g id="shape12-42" v:mID="12" v:groupContext="shape" transform="translate(5.20962,-18.1043)">
				<title>Sheet.12</title>
				<ellipse cx="7.16323" cy="527.521" rx="7.16323" ry="7.01086" class="st6"/>
			</g>
			<g id="shape13-45" v:mID="13" v:groupContext="shape" transform="translate(-524.264,442.483) rotate(-80.5423)">
				<title>Sheet.13</title>
				<path d="M-0 534.53 A24.8343 55.1945 0 0 1 13.44 534.53" class="st7"/>
			</g>
			<g id="shape14-49" v:mID="14" v:groupContext="shape" transform="translate(-511.991,573.093) rotate(-94.2553)">
				<title>Sheet.14</title>
				<path d="M-0 533.38 A48.0174 106.767 -180 0 0 14.07 533.38" class="st7"/>
			</g>
			<g id="shape15-53" v:mID="15" v:groupContext="shape" transform="translate(6.64226,-18.2223)">
				<title>Sheet.15</title>
				<path d="M0 531.72 A7.17672 7.02406 -180 0 0 10.82 532.47" class="st7"/>
			</g>
			<g id="shape16-57" v:mID="16" v:groupContext="shape" transform="translate(0.0163047,0)">
				<title>Sheet.16</title>
				<path d="M6.61 513.62 A11.0237 10.7892 -180 0 0 0 522.87 L0.04 527.2 A3.68208 3.60376 -180 0 0 1.41 530.06 A1.41796
							 1.3878 -180 0 0 2.99 530.32 A1.89751 1.85715 -180 0 0 3.89 531.72 A25.6694 25.1234 -180 0 0 16 534.53
							 A8.2964 8.11993 -180 0 0 19.9 533.51 A1.34508 1.31647 -180 0 0 21.46 533.76 A5.56005 5.44179 -180 0
							 0 24.08 531.09 L24.08 524.15 A10.4862 10.2632 -180 0 0 17.49 514.37 L17.43 514.37 A7.16605 7.01362 -180
							 1 0 6.61 513.62" class="st8"/>
			</g>
			<g id="shape9-60" v:mID="9" v:groupContext="groupContent">
				<v:textBlock v:margins="rect(4,4,4,4)" v:tabSpace="42.5197"/>
				<v:textRect cx="12.0472" cy="545.734" width="33.27" height="22.4037"/>
				<text x="0.77" y="549.33" class="st9" v:langID="1033"><v:paragraph v:horizAlign="1"/><v:tabList/>User</text>			</g>
		</g>
		<g id="shape25-62" v:mID="25" v:groupContext="shape" transform="translate(210.554,-350.876)">
			<title>Rounded Rectangle</title>
			<desc>&#60;container&#62; Web portal html, css, js, react Provides gui</desc>
			<v:userDefs>
				<v:ud v:nameU="CTypeTopLeftSnip" v:prompt="" v:val="VT0(0):5"/>
				<v:ud v:nameU="CTypeTopRightSnip" v:prompt="" v:val="VT0(0):5"/>
				<v:ud v:nameU="CTypeBotLeftSnip" v:prompt="" v:val="VT0(0):5"/>
				<v:ud v:nameU="CTypeBotRightSnip" v:prompt="" v:val="VT0(0):5"/>
				<v:ud v:nameU="CornerLockHoriz" v:prompt="" v:val="VT0(1):5"/>
				<v:ud v:nameU="CornerLockVert" v:prompt="" v:val="VT0(1):5"/>
				<v:ud v:nameU="CornerLockDiag" v:prompt="" v:val="VT0(0):5"/>
				<v:ud v:nameU="TopLeftOffset" v:prompt="" v:val="VT0(0.15748031496063):24"/>
				<v:ud v:nameU="TopRightOffset" v:prompt="" v:val="VT0(0.15748031496063):24"/>
				<v:ud v:nameU="BotLeftOffset" v:prompt="" v:val="VT0(0.15748031496063):24"/>
				<v:ud v:nameU="BotRightOffset" v:prompt="" v:val="VT0(0.15748031496063):24"/>
				<v:ud v:nameU="visVersion" v:prompt="" v:val="VT0(15):26"/>
				<v:ud v:nameU="TopLeftOffset" v:prompt="" v:val="VT0(0):1"/>
				<v:ud v:nameU="TopRightOffset" v:prompt="" v:val="VT0(0):1"/>
				<v:ud v:nameU="BotLeftOffset" v:prompt="" v:val="VT0(0):1"/>
				<v:ud v:nameU="BotRightOffset" v:prompt="" v:val="VT0(0):1"/>
			</v:userDefs>
			<v:textBlock v:margins="rect(4,4,4,4)" v:tabSpace="42.5197"/>
			<v:textRect cx="84.3635" cy="489.401" width="168.73" height="90.2609"/>
			<path d="M2 534.53 L166.73 534.53 A2 2 -180 0 0 168.73 532.53 L168.73 446.27 A2 2 -180 0 0 166.73 444.27 L2 444.27 A2
						 2 -180 0 0 -0 446.27 L0 532.53 A2 2 -180 0 0 2 534.53 Z" class="st10"/>
			<text x="55.04" y="471.4" class="st9" v:langID="1033"><v:paragraph v:horizAlign="1"/><v:tabList/>&#60;container&#62;<v:newlineChar/><tspan
						x="56.86" dy="1.2em" class="st11">Web portal<v:newlineChar/></tspan><tspan x="40.96" dy="1.2em"
						class="st11">html, css, js, react<v:newlineChar/></tspan><tspan x="54.73" dy="1.2em" class="st11">Provides gui</tspan></text>		</g>
		<g id="shape26-68" v:mID="26" v:groupContext="shape" v:layerMember="0" transform="translate(45.888,-388.92)">
			<title>Dynamic connector</title>
			<desc>Manage sources, targets, queries [http]</desc>
			<v:textBlock v:margins="rect(4,4,4,4)" v:tabSpace="42.5197"/>
			<v:textRect cx="76.0018" cy="526.601" width="96.07" height="65.604"/>
			<path d="M0 527.45 L154.86 527.45" class="st12"/>
			<rect v:rectContext="textBkgnd" x="34.6842" y="497.801" width="82.635" height="57.6002" class="st14"/>
			<text x="34.68" y="508.6" class="st9" v:langID="1033"><v:paragraph v:horizAlign="1"/><v:tabList/>Manage sources, <v:newlineChar/><tspan
						x="57.36" dy="1.2em" class="st11">targets, <v:newlineChar/></tspan><tspan x="57.91" dy="1.2em" class="st11">queries<v:newlineChar/></tspan><tspan
						x="62" dy="1.2em" class="st11">[http]</tspan></text>		</g>
		<g id="shape27-79" v:mID="27" v:groupContext="shape" v:layerMember="0" transform="translate(48.1951,-214.488)">
			<title>Dynamic connector.142</title>
			<desc>View rules, Execute queries, View statistics, Receive notific...</desc>
			<v:textBlock v:margins="rect(4,4,4,4)" v:tabSpace="42.5197"/>
			<v:textRect cx="73.6947" cy="536.422" width="111.86" height="80.0041"/>
			<path d="M0 534.53 L121.88 534.53 L121.88 353.01 L152.55 353.01" class="st12"/>
			<rect v:rectContext="textBkgnd" x="23.1279" y="500.422" width="101.134" height="72.0003" class="st14"/>
			<text x="46.83" y="511.22" class="st9" v:langID="1033"><v:paragraph v:horizAlign="1"/><v:tabList/>View rules,<v:newlineChar/><tspan
						x="33.55" dy="1.2em" class="st11">Execute queries,<v:newlineChar/></tspan><tspan x="37.55" dy="1.2em"
						class="st11">View statistics,<v:newlineChar/></tspan><tspan x="23.13" dy="1.2em" class="st11">Receive notifications<v:newlineChar/></tspan><tspan
						x="59.69" dy="1.2em" class="st11">[http]</tspan></text>		</g>
		<g id="shape29-90" v:mID="29" v:groupContext="shape" transform="translate(561.974,-272.431)">
			<title>Rounded Rectangle.145</title>
			<desc>PostgreSQL Based App</desc>
			<v:userDefs>
				<v:ud v:nameU="CTypeTopLeftSnip" v:prompt="" v:val="VT0(0):5"/>
				<v:ud v:nameU="CTypeTopRightSnip" v:prompt="" v:val="VT0(0):5"/>
				<v:ud v:nameU="CTypeBotLeftSnip" v:prompt="" v:val="VT0(0):5"/>
				<v:ud v:nameU="CTypeBotRightSnip" v:prompt="" v:val="VT0(0):5"/>
				<v:ud v:nameU="CornerLockHoriz" v:prompt="" v:val="VT0(1):5"/>
				<v:ud v:nameU="CornerLockVert" v:prompt="" v:val="VT0(1):5"/>
				<v:ud v:nameU="CornerLockDiag" v:prompt="" v:val="VT0(0):5"/>
				<v:ud v:nameU="TopLeftOffset" v:prompt="" v:val="VT0(0.15748031496063):24"/>
				<v:ud v:nameU="TopRightOffset" v:prompt="" v:val="VT0(0.15748031496063):24"/>
				<v:ud v:nameU="BotLeftOffset" v:prompt="" v:val="VT0(0.15748031496063):24"/>
				<v:ud v:nameU="BotRightOffset" v:prompt="" v:val="VT0(0.15748031496063):24"/>
				<v:ud v:nameU="visVersion" v:prompt="" v:val="VT0(15):26"/>
				<v:ud v:nameU="TopLeftOffset" v:prompt="" v:val="VT0(0):1"/>
				<v:ud v:nameU="TopRightOffset" v:prompt="" v:val="VT0(0):1"/>
				<v:ud v:nameU="BotLeftOffset" v:prompt="" v:val="VT0(0):1"/>
				<v:ud v:nameU="BotRightOffset" v:prompt="" v:val="VT0(0):1"/>
			</v:userDefs>
			<v:textBlock v:margins="rect(4,4,4,4)" v:tabSpace="42.5197"/>
			<v:textRect cx="51.0987" cy="508.075" width="102.2" height="52.9134"/>
			<path d="M2 534.53 L100.2 534.53 A2 2 -180 0 0 102.2 532.53 L102.2 483.62 A2 2 -180 0 0 100.2 481.62 L2 481.62 A2 2 -180
						 0 0 -0 483.62 L0 532.53 A2 2 -180 0 0 2 534.53 Z" class="st15"/>
			<text x="7.28" y="504.48" class="st9" v:langID="1033"><v:paragraph v:horizAlign="1"/><v:tabList/>PostgreSQL Based <tspan
						x="41.32" dy="1.2em" class="st11">App</tspan></text>		</g>
		<g id="shape30-94" v:mID="30" v:groupContext="shape" v:layerMember="0" transform="translate(379.281,-222.266)">
			<title>Dynamic connector.147</title>
			<desc>Check data quality [PostgreSQL , Oracle, MSSQL clients]</desc>
			<v:textBlock v:margins="rect(4,4,4,4)" v:tabSpace="42.5197"/>
			<v:textRect cx="81.9948" cy="531.717" width="115.88" height="51.2039"/>
			<path d="M0 528.69 L154.76 526.35" class="st12"/>
			<rect v:rectContext="textBkgnd" x="30.772" y="510.117" width="102.446" height="43.2002" class="st14"/>
			<text x="37.11" y="520.92" class="st9" v:langID="1033"><v:paragraph v:horizAlign="1"/><v:tabList/>Check data quality<v:newlineChar/><tspan
						x="30.77" dy="1.2em" class="st11">[PostgreSQL , Oracle, <v:newlineChar/></tspan><tspan x="45.81" dy="1.2em"
						class="st11">MSSQL clients]</tspan></text>		</g>
		<g id="shape31-103" v:mID="31" v:groupContext="shape" transform="translate(210.554,-182.977)">
			<title>Rounded Rectangle.31</title>
			<desc>&#60;container&#62; Web Service node.js Transfer data between app and...</desc>
			<v:userDefs>
				<v:ud v:nameU="CTypeTopLeftSnip" v:prompt="" v:val="VT0(0):5"/>
				<v:ud v:nameU="CTypeTopRightSnip" v:prompt="" v:val="VT0(0):5"/>
				<v:ud v:nameU="CTypeBotLeftSnip" v:prompt="" v:val="VT0(0):5"/>
				<v:ud v:nameU="CTypeBotRightSnip" v:prompt="" v:val="VT0(0):5"/>
				<v:ud v:nameU="CornerLockHoriz" v:prompt="" v:val="VT0(1):5"/>
				<v:ud v:nameU="CornerLockVert" v:prompt="" v:val="VT0(1):5"/>
				<v:ud v:nameU="CornerLockDiag" v:prompt="" v:val="VT0(0):5"/>
				<v:ud v:nameU="TopLeftOffset" v:prompt="" v:val="VT0(0.15748031496063):24"/>
				<v:ud v:nameU="TopRightOffset" v:prompt="" v:val="VT0(0.15748031496063):24"/>
				<v:ud v:nameU="BotLeftOffset" v:prompt="" v:val="VT0(0.15748031496063):24"/>
				<v:ud v:nameU="BotRightOffset" v:prompt="" v:val="VT0(0.15748031496063):24"/>
				<v:ud v:nameU="visVersion" v:prompt="" v:val="VT0(15):26"/>
				<v:ud v:nameU="TopLeftOffset" v:prompt="" v:val="VT0(0):1"/>
				<v:ud v:nameU="TopRightOffset" v:prompt="" v:val="VT0(0):1"/>
				<v:ud v:nameU="BotLeftOffset" v:prompt="" v:val="VT0(0):1"/>
				<v:ud v:nameU="BotRightOffset" v:prompt="" v:val="VT0(0):1"/>
			</v:userDefs>
			<v:textBlock v:margins="rect(4,4,4,4)" v:tabSpace="42.5197"/>
			<v:textRect cx="84.3635" cy="489.401" width="168.73" height="90.2609"/>
			<path d="M2 534.53 L166.73 534.53 A2 2 -180 0 0 168.73 532.53 L168.73 446.27 A2 2 -180 0 0 166.73 444.27 L2 444.27 A2
						 2 -180 0 0 -0 446.27 L0 532.53 A2 2 -180 0 0 2 534.53 Z" class="st10"/>
			<text x="55.04" y="457" class="st9" v:langID="1033"><v:paragraph v:horizAlign="1"/><v:tabList/>&#60;container&#62;<v:lf/><tspan
						x="54.09" dy="1.2em" class="st11">Web Service <v:newlineChar/></tspan><tspan x="66.61" dy="1.2em"
						class="st11">node.js<v:newlineChar/></tspan><tspan x="7.81" dy="1.2em" class="st11">Transfer data between app and </tspan><tspan
						x="18.42" dy="1.2em" class="st11">db, execute schedule, send </tspan><tspan x="53.99" dy="1.2em"
						class="st11">notifications</tspan></text>		</g>
		<g id="shape33-111" v:mID="33" v:groupContext="shape" transform="translate(208.222,-27.0717)">
			<title>Rounded Rectangle.33</title>
			<desc>&#60;container&#62; Database PostgreSQL Store data and execute busine...</desc>
			<v:userDefs>
				<v:ud v:nameU="CTypeTopLeftSnip" v:prompt="" v:val="VT0(0):5"/>
				<v:ud v:nameU="CTypeTopRightSnip" v:prompt="" v:val="VT0(0):5"/>
				<v:ud v:nameU="CTypeBotLeftSnip" v:prompt="" v:val="VT0(0):5"/>
				<v:ud v:nameU="CTypeBotRightSnip" v:prompt="" v:val="VT0(0):5"/>
				<v:ud v:nameU="CornerLockHoriz" v:prompt="" v:val="VT0(1):5"/>
				<v:ud v:nameU="CornerLockVert" v:prompt="" v:val="VT0(1):5"/>
				<v:ud v:nameU="CornerLockDiag" v:prompt="" v:val="VT0(0):5"/>
				<v:ud v:nameU="TopLeftOffset" v:prompt="" v:val="VT0(0.15748031496063):24"/>
				<v:ud v:nameU="TopRightOffset" v:prompt="" v:val="VT0(0.15748031496063):24"/>
				<v:ud v:nameU="BotLeftOffset" v:prompt="" v:val="VT0(0.15748031496063):24"/>
				<v:ud v:nameU="BotRightOffset" v:prompt="" v:val="VT0(0.15748031496063):24"/>
				<v:ud v:nameU="visVersion" v:prompt="" v:val="VT0(15):26"/>
				<v:ud v:nameU="TopLeftOffset" v:prompt="" v:val="VT0(0):1"/>
				<v:ud v:nameU="TopRightOffset" v:prompt="" v:val="VT0(0):1"/>
				<v:ud v:nameU="BotLeftOffset" v:prompt="" v:val="VT0(0):1"/>
				<v:ud v:nameU="BotRightOffset" v:prompt="" v:val="VT0(0):1"/>
			</v:userDefs>
			<v:textBlock v:margins="rect(4,4,4,4)" v:tabSpace="42.5197"/>
			<v:textRect cx="84.3635" cy="489.401" width="168.73" height="90.2609"/>
			<path d="M2 534.53 L166.73 534.53 A2 2 -180 0 0 168.73 532.53 L168.73 446.27 A2 2 -180 0 0 166.73 444.27 L2 444.27 A2
						 2 -180 0 0 -0 446.27 L0 532.53 A2 2 -180 0 0 2 534.53 Z" class="st10"/>
			<text x="55.04" y="464.2" class="st9" v:langID="1033"><v:paragraph v:horizAlign="1"/><v:tabList/>&#60;container&#62;<v:lf/><tspan
						x="61.56" dy="1.2em" class="st11">Database<v:newlineChar/></tspan><tspan x="56.53" dy="1.2em" class="st11">PostgreSQL<v:newlineChar/></tspan><tspan
						x="5.73" dy="1.2em" class="st11">Store data and execute business </tspan><tspan x="73.08" dy="1.2em"
						class="st11">logic</tspan></text>		</g>
		<g id="shape34-118" v:mID="34" v:groupContext="shape" v:layerMember="0" transform="translate(287.831,-350.876)">
			<title>Dynamic connector.34</title>
			<desc>get/send data AJAX GET/POST, JSON [http]</desc>
			<v:textBlock v:margins="rect(4,4,4,4)" v:tabSpace="42.5197"/>
			<v:textRect cx="11.1884" cy="566.958" width="117.53" height="51.2039"/>
			<path d="M7.09 534.53 L7.09 602.36" class="st12"/>
			<rect v:rectContext="textBkgnd" x="-42.2171" y="545.358" width="106.811" height="43.2002" class="st14"/>
			<text x="-22.85" y="556.16" class="st9" v:langID="1033"><v:paragraph v:horizAlign="1"/><v:tabList/>get/send data<v:newlineChar/><tspan
						x="-42.22" dy="1.2em" class="st11">AJAX GET/POST, JSON<v:newlineChar/></tspan><tspan x="-2.82" dy="1.2em"
						class="st11">[http]</tspan></text>		</g>
		<g id="shape35-127" v:mID="35" v:groupContext="shape" v:layerMember="0" transform="translate(300.838,-182.977)">
			<title>Dynamic connector.35</title>
			<desc>Execute stored procedures SQL procedure call [PostgreSQL clie...</desc>
			<v:textBlock v:margins="rect(4,4,4,4)" v:tabSpace="42.5197"/>
			<v:textRect cx="-8.25244" cy="566.188" width="141.36" height="51.2039"/>
			<path d="M-5.92 534.53 L-5.92 545.16 L-8.25 545.16 L-8.25 590.37" class="st12"/>
			<rect v:rectContext="textBkgnd" x="-73.5732" y="544.588" width="130.642" height="43.2002" class="st14"/>
			<text x="-73.57" y="555.39" class="st9" v:langID="1033"><v:paragraph v:horizAlign="1"/><v:tabList/>Execute stored procedures<v:newlineChar/><tspan
						x="-53.76" dy="1.2em" class="st11">SQL procedure call<v:newlineChar/></tspan><tspan x="-54.57" dy="1.2em"
						class="st11">[PostgreSQL client]</tspan></text>		</g>
		<g id="shape36-136" v:mID="36" v:groupContext="shape" transform="translate(563.487,-198.425)">
			<title>Rounded Rectangle.36</title>
			<desc>Oracle Based App</desc>
			<v:userDefs>
				<v:ud v:nameU="CTypeTopLeftSnip" v:prompt="" v:val="VT0(0):5"/>
				<v:ud v:nameU="CTypeTopRightSnip" v:prompt="" v:val="VT0(0):5"/>
				<v:ud v:nameU="CTypeBotLeftSnip" v:prompt="" v:val="VT0(0):5"/>
				<v:ud v:nameU="CTypeBotRightSnip" v:prompt="" v:val="VT0(0):5"/>
				<v:ud v:nameU="CornerLockHoriz" v:prompt="" v:val="VT0(1):5"/>
				<v:ud v:nameU="CornerLockVert" v:prompt="" v:val="VT0(1):5"/>
				<v:ud v:nameU="CornerLockDiag" v:prompt="" v:val="VT0(0):5"/>
				<v:ud v:nameU="TopLeftOffset" v:prompt="" v:val="VT0(0.15748031496063):24"/>
				<v:ud v:nameU="TopRightOffset" v:prompt="" v:val="VT0(0.15748031496063):24"/>
				<v:ud v:nameU="BotLeftOffset" v:prompt="" v:val="VT0(0.15748031496063):24"/>
				<v:ud v:nameU="BotRightOffset" v:prompt="" v:val="VT0(0.15748031496063):24"/>
				<v:ud v:nameU="visVersion" v:prompt="" v:val="VT0(15):26"/>
				<v:ud v:nameU="TopLeftOffset" v:prompt="" v:val="VT0(0):1"/>
				<v:ud v:nameU="TopRightOffset" v:prompt="" v:val="VT0(0):1"/>
				<v:ud v:nameU="BotLeftOffset" v:prompt="" v:val="VT0(0):1"/>
				<v:ud v:nameU="BotRightOffset" v:prompt="" v:val="VT0(0):1"/>
			</v:userDefs>
			<v:textBlock v:margins="rect(4,4,4,4)" v:tabSpace="42.5197"/>
			<v:textRect cx="51.0987" cy="508.075" width="102.2" height="52.9134"/>
			<path d="M2 534.53 L100.2 534.53 A2 2 -180 0 0 102.2 532.53 L102.2 483.62 A2 2 -180 0 0 100.2 481.62 L2 481.62 A2 2 -180
						 0 0 -0 483.62 L0 532.53 A2 2 -180 0 0 2 534.53 Z" class="st15"/>
			<text x="8.15" y="511.68" class="st9" v:langID="1033"><v:paragraph v:horizAlign="1"/><v:tabList/>Oracle Based App</text>		</g>
		<g id="shape50-139" v:mID="50" v:groupContext="shape" transform="translate(469.542,-483.405)">
			<title>Rectangle</title>
			<v:userDefs>
				<v:ud v:nameU="visVersion" v:val="VT0(15):26"/>
			</v:userDefs>
			<rect x="0" y="527.445" width="21.4173" height="7.08661" class="st10"/>
		</g>
		<g id="shape51-141" v:mID="51" v:groupContext="shape" transform="translate(487.759,-478.445)">
			<title>Sheet.51</title>
			<desc>New system</desc>
			<v:textBlock v:margins="rect(4,4,4,4)" v:tabSpace="42.5197"/>
			<v:textRect cx="36.1903" cy="526.028" width="72.39" height="17.0079"/>
			<rect x="0" y="517.524" width="72.3807" height="17.0079" class="st16"/>
			<text x="4" y="529.63" class="st9" v:langID="1033"><v:paragraph/><v:tabList/>New system</text>		</g>
		<g id="shape52-144" v:mID="52" v:groupContext="shape" transform="translate(565.025,-483.78)">
			<title>Rectangle.151</title>
			<v:userDefs>
				<v:ud v:nameU="visVersion" v:val="VT0(15):26"/>
			</v:userDefs>
			<rect x="0" y="527.445" width="21.4173" height="7.08661" class="st15"/>
		</g>
		<g id="shape53-146" v:mID="53" v:groupContext="shape" transform="translate(586.285,-478.82)">
			<title>Sheet.53</title>
			<desc>Existing system</desc>
			<v:textBlock v:margins="rect(4,4,4,4)" v:tabSpace="42.5197"/>
			<v:textRect cx="51.0987" cy="526.028" width="102.2" height="17.0079"/>
			<rect x="0" y="517.524" width="102.197" height="17.0079" class="st16"/>
			<text x="4" y="529.63" class="st9" v:langID="1033"><v:paragraph/><v:tabList/>Existing system</text>		</g>
		<g id="shape60-149" v:mID="60" v:groupContext="shape" transform="translate(563.487,-134.646)">
			<title>Rounded Rectangle.60</title>
			<desc>MSSQL Based App</desc>
			<v:userDefs>
				<v:ud v:nameU="CTypeTopLeftSnip" v:prompt="" v:val="VT0(0):5"/>
				<v:ud v:nameU="CTypeTopRightSnip" v:prompt="" v:val="VT0(0):5"/>
				<v:ud v:nameU="CTypeBotLeftSnip" v:prompt="" v:val="VT0(0):5"/>
				<v:ud v:nameU="CTypeBotRightSnip" v:prompt="" v:val="VT0(0):5"/>
				<v:ud v:nameU="CornerLockHoriz" v:prompt="" v:val="VT0(1):5"/>
				<v:ud v:nameU="CornerLockVert" v:prompt="" v:val="VT0(1):5"/>
				<v:ud v:nameU="CornerLockDiag" v:prompt="" v:val="VT0(0):5"/>
				<v:ud v:nameU="TopLeftOffset" v:prompt="" v:val="VT0(0.15748031496063):24"/>
				<v:ud v:nameU="TopRightOffset" v:prompt="" v:val="VT0(0.15748031496063):24"/>
				<v:ud v:nameU="BotLeftOffset" v:prompt="" v:val="VT0(0.15748031496063):24"/>
				<v:ud v:nameU="BotRightOffset" v:prompt="" v:val="VT0(0.15748031496063):24"/>
				<v:ud v:nameU="visVersion" v:prompt="" v:val="VT0(15):26"/>
				<v:ud v:nameU="TopLeftOffset" v:prompt="" v:val="VT0(0):1"/>
				<v:ud v:nameU="TopRightOffset" v:prompt="" v:val="VT0(0):1"/>
				<v:ud v:nameU="BotLeftOffset" v:prompt="" v:val="VT0(0):1"/>
				<v:ud v:nameU="BotRightOffset" v:prompt="" v:val="VT0(0):1"/>
			</v:userDefs>
			<v:textBlock v:margins="rect(4,4,4,4)" v:tabSpace="42.5197"/>
			<v:textRect cx="51.0987" cy="508.075" width="102.2" height="52.9134"/>
			<path d="M2 534.53 L100.2 534.53 A2 2 -180 0 0 102.2 532.53 L102.2 483.62 A2 2 -180 0 0 100.2 481.62 L2 481.62 A2 2 -180
						 0 0 -0 483.62 L0 532.53 A2 2 -180 0 0 2 534.53 Z" class="st15"/>
			<text x="6.78" y="511.68" class="st9" v:langID="1033"><v:paragraph v:horizAlign="1"/><v:tabList/>MSSQL Based App</text>		</g>
	</g>
</svg>
